<svg width="72" height="72" viewBox="0 0 72 72" fill="none" xmlns="http://www.w3.org/2000/svg">
<rect x="0.5" y="0.5" width="71" height="71" rx="35.5" stroke="#A4D1FD"/>
<path d="M51.6399 47.3061C51.3972 47.0634 51.1235 46.8695 50.8316 46.7258C50.8288 46.7239 50.8256 46.7225 50.8225 46.7211C50.1384 46.3914 49.6664 45.6917 49.6664 44.8811C49.6664 44.5353 49.7522 44.2093 49.9041 43.9239C49.9223 43.8899 49.9419 43.8558 49.962 43.8227C49.9634 43.8213 49.9643 43.8199 49.9648 43.818C51.317 41.4408 52.0886 38.6907 52.0886 35.7605C52.0886 26.7433 44.7783 19.4333 35.7609 19.4333C34.0564 19.4333 32.4123 19.6948 30.8675 20.1794C28.3235 20.9778 26.0474 22.3822 24.2088 24.2231C24.2037 24.2278 24.1981 24.2334 24.193 24.2385L24.1925 24.239C23.2877 25.1475 22.4888 26.1621 21.817 27.2625C21.5168 27.7537 21.2418 28.2621 20.9944 28.7859C19.9934 30.9009 19.4336 33.2653 19.4336 35.7605C19.4336 42.8977 24.0128 48.9653 30.3931 51.1855C32.0744 51.7705 33.8802 52.0883 35.7609 52.0883C37.5316 52.0883 39.2368 51.8064 40.8335 51.2854C41.8709 50.9463 42.8626 50.506 43.7969 49.9771C43.7987 49.9761 43.8006 49.9752 43.8025 49.9738C43.8477 49.9453 43.8939 49.9187 43.9406 49.8945C44.4056 49.6509 44.929 49.6037 45.408 49.7302C45.8889 49.8571 46.3255 50.1598 46.612 50.6141C46.6524 50.6775 46.6883 50.7419 46.7205 50.8077C46.7233 50.8143 46.7266 50.8208 46.7299 50.8273C46.8741 51.1192 47.0677 51.3927 47.3106 51.6356C47.55 51.875 47.8195 52.0666 48.1065 52.2098C49.2529 52.7831 50.6837 52.5918 51.6399 51.6356C52.8355 50.4398 52.8357 48.5019 51.6399 47.3061ZM44.8249 40.4538C44.3795 41.3129 43.8155 42.1004 43.1545 42.7946C41.2958 44.7481 38.6705 45.9658 35.7609 45.9658C34.3844 45.9658 33.0722 45.6935 31.874 45.1996C28.1661 43.6705 25.5563 40.0205 25.5563 35.7608C25.5563 34.4968 25.786 33.2867 26.2062 32.17C26.2239 32.1233 26.2416 32.0764 26.2599 32.0302C27.4812 28.9223 30.1835 26.5585 33.498 25.8078C34.2258 25.6429 34.9829 25.5561 35.7609 25.5561C41.397 25.5561 45.9655 30.125 45.9655 35.7608C45.9655 37.4527 45.5536 39.0489 44.8249 40.4538Z" fill="url(#paint0_linear_2_8093)"/>
<path d="M40.8333 51.2854C39.2366 51.8064 37.5316 52.0885 35.7606 52.0885C26.7433 52.0885 19.4333 44.7787 19.4333 35.7608C19.4333 32.6477 20.3046 29.7381 21.8168 27.2627C22.4887 26.1622 23.2875 25.1477 24.1923 24.2391L24.1927 24.2387C24.1979 24.2335 24.2035 24.228 24.2086 24.2233C25.0672 23.4072 26.4254 23.4203 27.2676 24.2625C28.1234 25.1187 28.1234 26.5063 27.2676 27.3621C27.2536 27.3766 27.2387 27.3897 27.2242 27.4037C24.6223 29.9823 23.0106 33.5591 23.0106 37.5117C23.0106 45.3711 29.3817 51.7427 37.2411 51.7427C38.482 51.7425 39.6858 51.5838 40.8333 51.2854Z" fill="url(#paint1_linear_2_8093)"/>
<g opacity="0.6">
<path opacity="0.2" d="M37.2414 51.7423C37.2414 51.7682 37.2204 51.7892 37.1945 51.7892C33.3984 51.7771 29.8314 50.2931 27.1459 47.6074C24.4493 44.9108 22.9642 41.3254 22.9642 37.5118C22.9642 35.573 23.346 33.693 24.099 31.9241C24.8264 30.2155 25.8669 28.6835 27.1917 27.3705L27.2093 27.3539C27.2178 27.346 27.2263 27.3381 27.2344 27.3297C28.0602 26.5039 28.0709 25.1674 27.2671 24.3284C27.2495 24.31 27.2494 24.2811 27.2675 24.263C27.2859 24.2446 27.3161 24.2446 27.3341 24.2634C28.1733 25.1389 28.1623 26.5339 27.3009 27.3952C27.2922 27.4042 27.2826 27.4132 27.2729 27.4222L27.257 27.4372C24.5491 30.1209 23.0576 33.6989 23.0576 37.5118C23.0576 45.3175 29.3953 51.6707 37.1949 51.6959C37.2206 51.6959 37.2414 51.7166 37.2414 51.7423Z" fill="url(#paint2_linear_2_8093)"/>
</g>
<path d="M39.7891 42.8467C41.4801 42.8467 42.8507 41.4761 42.8507 39.7853C42.8507 38.0946 41.4801 36.7238 39.7891 36.7238C38.0984 36.7238 36.7278 38.0946 36.7278 39.7853C36.7278 41.4761 38.0984 42.8467 39.7891 42.8467Z" fill="url(#paint3_linear_2_8093)"/>
<path d="M51.6674 51.6077C50.4746 52.8313 48.5151 52.8406 47.3106 51.6357C47.0677 51.3928 46.8741 51.1193 46.7296 50.8274C46.7264 50.8209 46.7231 50.8144 46.7203 50.8078C46.6881 50.742 46.6522 50.6776 46.612 50.6142C46.3255 50.1599 45.8889 49.8572 45.408 49.7303C45.3474 49.7116 45.2867 49.692 45.227 49.671C44.6175 49.4571 44.0456 49.1071 43.5591 48.6206C42.594 47.6555 42.1652 46.3575 42.2725 45.0965C42.3546 44.1357 42.7716 43.2383 43.4098 42.5161C45.0004 40.7162 45.9655 38.3516 45.9655 35.7606C45.9655 34.2829 45.6512 32.8787 45.0863 31.611C43.6016 28.2795 40.3839 25.89 36.5782 25.5888C36.3085 25.5669 36.0357 25.5562 35.7609 25.5562C32.9506 25.5562 30.4062 26.6921 28.5606 28.5297C29.7428 27.3331 29.7381 25.4044 28.5475 24.2139C27.363 23.0294 25.4502 23.0182 24.2527 24.1798C24.2602 24.1723 24.2676 24.1648 24.2751 24.1578C25.0921 23.3492 25.9937 22.626 26.9662 22.0027C28.6026 20.9541 30.4388 20.1898 32.4044 19.7785C33.4436 19.5614 34.5188 19.4433 35.6199 19.4339C42.7837 19.3737 48.9307 23.9706 51.1772 30.3842C51.7603 32.0476 52.0807 33.8331 52.0886 35.6911C52.1007 38.6474 51.3275 41.4222 49.9648 43.8181C49.9643 43.82 49.9634 43.8214 49.962 43.8228C49.9419 43.8559 49.9223 43.89 49.9041 43.924C49.7522 44.2094 49.6664 44.5354 49.6664 44.8812C49.6664 45.6918 50.1384 46.3915 50.8223 46.7212C50.8256 46.7226 50.8288 46.724 50.8316 46.7259C51.1431 46.8794 51.4336 47.0896 51.688 47.3552C52.821 48.5394 52.8112 50.4343 51.6674 51.6077Z" fill="url(#paint4_linear_2_8093)"/>
<path d="M51.6672 51.6076C50.4744 52.8315 48.5149 52.8408 47.3104 51.6356C47.0675 51.393 46.8738 51.1193 46.7296 50.8276C46.7264 50.8208 46.7231 50.8143 46.7203 50.8078C46.6881 50.742 46.6522 50.6776 46.612 50.6141C46.3253 50.1598 45.8887 49.8574 45.4078 49.7302C45.3471 49.7116 45.2865 49.692 45.2267 49.671C44.3069 48.9292 43.6856 47.8227 43.5946 46.5513C43.5066 45.3272 43.9273 44.1846 44.6763 43.3294C46.815 40.8643 48.1096 37.6473 48.1096 34.1277C48.1096 26.3695 41.8203 20.0806 34.0622 20.0806C31.4738 20.0806 29.0484 20.7809 26.9661 22.0027C29.4676 20.3999 32.4352 19.461 35.6197 19.4339C44.6418 19.3578 52.0506 26.6692 52.0884 35.6913C52.1005 38.6474 51.3275 41.4222 49.9646 43.8183C49.9641 43.8201 49.9632 43.8215 49.9618 43.8229C49.9417 43.8561 49.9221 43.8901 49.9039 43.9242C49.7522 44.2093 49.6664 44.5353 49.6664 44.8813C49.6664 45.6917 50.1384 46.3917 50.8223 46.7212C50.8256 46.7226 50.8288 46.724 50.8316 46.7258C51.1429 46.8796 51.4334 47.0896 51.6877 47.3554C52.821 48.5393 52.8112 50.4344 51.6672 51.6076Z" fill="url(#paint5_linear_2_8093)"/>
<g opacity="0.6">
<path opacity="0.2" d="M43.5967 46.5513C43.5806 46.5525 43.5664 46.5404 43.5654 46.524C43.4882 45.3427 43.8751 44.2026 44.6563 43.3103C46.8657 40.7637 48.0825 37.5027 48.0825 34.1277C48.0825 26.4078 41.8096 20.1254 34.093 20.1098C34.0769 20.1097 34.0641 20.0968 34.0641 20.0808C34.0641 20.0647 34.0772 20.0516 34.0933 20.0516C35.9833 20.0554 37.8168 20.4275 39.5432 21.1578C41.2195 21.8667 42.725 22.8816 44.0176 24.1743C45.3103 25.467 46.3253 26.9724 47.0344 28.6485C47.7685 30.3839 48.1406 32.2275 48.1406 34.1277C48.1406 35.8525 47.8322 37.537 47.2241 39.1344C46.6366 40.6774 45.7872 42.0954 44.7001 43.3484C43.929 44.2292 43.5472 45.3546 43.6233 46.5205C43.6245 46.5364 43.6126 46.5502 43.5967 46.5513Z" fill="url(#paint6_linear_2_8093)"/>
</g>
<defs>
<linearGradient id="paint0_linear_2_8093" x1="56.2214" y1="19.4337" x2="28.4705" y2="24.2638" gradientUnits="userSpaceOnUse">
<stop stop-color="#A1D6FF"/>
<stop offset="1" stop-color="#FEFEFF"/>
</linearGradient>
<linearGradient id="paint1_linear_2_8093" x1="43.2154" y1="23.6211" x2="25.0429" y2="25.9985" gradientUnits="userSpaceOnUse">
<stop stop-color="#A1D6FF"/>
<stop offset="1" stop-color="#FEFEFF"/>
</linearGradient>
<linearGradient id="paint2_linear_2_8093" x1="21.671" y1="25.9164" x2="36.5131" y2="54.2513" gradientUnits="userSpaceOnUse">
<stop stop-color="white"/>
<stop offset="0.5251" stop-color="white"/>
<stop offset="1" stop-color="white"/>
</linearGradient>
<linearGradient id="paint3_linear_2_8093" x1="43.5322" y1="36.724" x2="38.3994" y2="37.6172" gradientUnits="userSpaceOnUse">
<stop stop-color="#A1D6FF"/>
<stop offset="1" stop-color="#FEFEFF"/>
</linearGradient>
<linearGradient id="paint4_linear_2_8093" x1="55.6794" y1="19.4337" x2="31.7828" y2="22.9868" gradientUnits="userSpaceOnUse">
<stop stop-color="#A1D6FF"/>
<stop offset="1" stop-color="#FEFEFF"/>
</linearGradient>
<linearGradient id="paint5_linear_2_8093" x1="49.8834" y1="18.15" x2="34.695" y2="32.2741" gradientUnits="userSpaceOnUse">
<stop stop-color="#A1D6FF"/>
<stop offset="1" stop-color="#FEFEFF"/>
</linearGradient>
<linearGradient id="paint6_linear_2_8093" x1="36.127" y1="15.427" x2="48.794" y2="46.0291" gradientUnits="userSpaceOnUse">
<stop stop-color="white"/>
<stop offset="0.5251" stop-color="white"/>
<stop offset="1" stop-color="white"/>
</linearGradient>
</defs>
</svg>
